<svg width="107" height="34" viewBox="0 0 107 34" fill="none" xmlns="http://www.w3.org/2000/svg">
<g clip-path="url(#clip0)">
<path d="M13.31 26.24C6.08 26.24 0 20.35 0 13.12C0 5.89 6.08 0 13.31 0C17.31 0 20.16 1.57 22.3 3.62L19.77 6.15C18.23 4.71 16.15 3.59 13.31 3.59C8.03 3.59 3.9 7.85 3.9 13.13C3.9 18.41 8.03 22.67 13.31 22.67C16.73 22.67 18.69 21.29 19.93 20.05C20.95 19.03 21.63 17.55 21.88 15.54H13.56V11.96H25.37C25.5 12.6 25.56 13.37 25.56 14.2C25.56 16.89 24.82 20.22 22.46 22.58C20.16 24.96 17.21 26.24 13.31 26.24Z" fill="#4285F4"/>
<path d="M44.52 17.8001C44.52 22.6601 40.72 26.2501 36.07 26.2501C31.41 26.2501 27.62 22.6701 27.62 17.8001C27.62 12.9001 31.41 9.3501 36.07 9.3501C40.72 9.3501 44.52 12.9101 44.52 17.8001ZM40.82 17.8001C40.82 14.7601 38.62 12.6801 36.07 12.6801C33.52 12.6801 31.32 14.7601 31.32 17.8001C31.32 20.8101 33.52 22.9201 36.07 22.9201C38.62 22.9201 40.82 20.8101 40.82 17.8001Z" fill="#E94235"/>
<path d="M63.52 17.7901C63.52 22.6501 59.73 26.2401 55.07 26.2401C50.41 26.2401 46.62 22.6601 46.62 17.7901C46.62 12.8901 50.41 9.34009 55.07 9.34009C59.73 9.34009 63.52 12.9001 63.52 17.7901ZM59.82 17.7901C59.82 14.7501 57.62 12.6701 55.07 12.6701C52.52 12.6701 50.32 14.7501 50.32 17.7901C50.32 20.8001 52.52 22.9101 55.07 22.9101C57.62 22.9101 59.82 20.8001 59.82 17.7901Z" fill="#FABB05"/>
<path d="M81.57 9.85009V25.0201C81.57 31.2601 77.89 33.8201 73.54 33.8201C69.44 33.8201 66.98 31.0701 66.05 28.8301L69.28 27.4901C69.86 28.8701 71.26 30.5001 73.54 30.5001C76.32 30.5001 78.05 28.7701 78.05 25.5401V24.3201H77.92C77.09 25.3401 75.49 26.2401 73.47 26.2401C69.25 26.2401 65.57 22.5601 65.57 17.8201C65.57 13.0501 69.25 9.34009 73.47 9.34009C75.49 9.34009 77.09 10.2401 77.92 11.2301H78.05V9.85009H81.57ZM78.3 17.8201C78.3 14.8401 76.32 12.6701 73.79 12.6701C71.23 12.6701 69.28 14.8501 69.28 17.8201C69.28 20.7601 71.23 22.9101 73.79 22.9101C76.32 22.9101 78.3 20.7701 78.3 17.8201Z" fill="#4285F4"/>
<path d="M88.28 0.909912V25.7399H84.57V0.909912H88.28Z" fill="#34A853"/>
<path d="M103.11 20.5701L105.99 22.4901C105.06 23.8701 102.82 26.2301 98.95 26.2301C94.15 26.2301 90.57 22.5201 90.57 17.7801C90.57 12.7601 94.19 9.33008 98.54 9.33008C102.92 9.33008 105.07 12.8201 105.77 14.7101L106.15 15.6701L94.85 20.3401C95.71 22.0401 97.06 22.9001 98.95 22.9001C100.84 22.9101 102.15 21.9801 103.11 20.5701ZM94.25 17.5301L101.8 14.3901C101.38 13.3301 100.14 12.6001 98.66 12.6001C96.77 12.6101 94.15 14.2701 94.25 17.5301Z" fill="#E94235"/>
</g>
<defs>
<clipPath id="clip0">
<rect width="106.15" height="33.82" fill="white"/>
</clipPath>
</defs>
</svg>
